<svg id="_0110_report_analysis_1" data-name="0110_report_analysis_1" xmlns="http://www.w3.org/2000/svg" viewBox="0 0 500 500" data-imageid="report-analysis-1-70" imageName="Report Analysis 1" class="illustrations_image" style="width: 188px;"><defs><style>.cls-1_report-analysis-1-70{fill:#68e1fd;}.cls-2_report-analysis-1-70{fill:#093f68;}.cls-3_report-analysis-1-70{fill:#ffc9b0;}.cls-4_report-analysis-1-70{fill:#fff;}.cls-5_report-analysis-1-70{fill:#dfeaef;}</style></defs><g id="graph_report-analysis-1-70"><polygon class="cls-1_report-analysis-1-70 targetColor" points="143.72 415.96 132.6 367.34 76.06 367.34 71.43 415.96 143.72 415.96" style="fill: rgb(0, 187, 250);"/><path class="cls-2_report-analysis-1-70" d="M143.72,418H71.43a2,2,0,0,1-1.51-.67,2,2,0,0,1-.52-1.57L74,367.14a2,2,0,0,1,2-1.84H132.6a2,2,0,0,1,2,1.58L145.7,415.5a2,2,0,0,1-.39,1.73A2.05,2.05,0,0,1,143.72,418Zm-70-4.08h67.49L131,369.37H77.91Z"/><path class="cls-2_report-analysis-1-70" d="M110.3,84.15c-11.26,0-27.1-1.54-27.1,49.31h72.38S121.56,84.15,110.3,84.15Z"/><path class="cls-2_report-analysis-1-70" d="M155.58,135.49H83.2a2,2,0,0,1-2-2c0-23.77,3.47-38.77,10.6-45.87,5.55-5.53,12.23-5.52,17.59-5.48h1c3.44,0,10.13,2.63,28.45,25.42,9.84,12.24,18.42,24.65,18.5,24.77a2,2,0,0,1,.13,2.1A2,2,0,0,1,155.58,135.49Zm-70.33-4.07h66.42c-13.21-18.72-34.36-45.23-41.37-45.23h-1c-5.08,0-10.35,0-14.69,4.29C88.5,96.58,85.43,110,85.25,131.42Z"/><path class="cls-3_report-analysis-1-70" d="M76.18,367.34s2.8-53.37,5.61-72,52.36-48.52,52.36-48.52V367.34Z"/><path class="cls-2_report-analysis-1-70" d="M134.15,369.37h-58a2.07,2.07,0,0,1-1.48-.63,2.1,2.1,0,0,1-.56-1.51C74.26,365,77,313.55,79.77,295c2.92-19.39,51.27-48.72,53.33-50a2,2,0,0,1,3.09,1.74V367.33A2,2,0,0,1,134.15,369.37ZM78.33,365.3h53.78V250.43C116.9,260,85.84,282.07,83.8,295.6,81.36,311.84,78.89,355.15,78.33,365.3Z"/><path class="cls-4_report-analysis-1-70" d="M326.7,84.15H110.3s13.21-4.76,13.21,48.26v242.8H367.69V125.14A41,41,0,0,0,326.7,84.15Z"/><path class="cls-2_report-analysis-1-70" d="M367.69,377.25H123.51a2,2,0,0,1-2-2V132.4c0-35.07-5.91-43.52-8.46-45.53a3.87,3.87,0,0,0-1.23-.68H110.3a2,2,0,0,1-.69-4,5.31,5.31,0,0,1,2.64-.12H326.7a43.08,43.08,0,0,1,43,43V375.21A2,2,0,0,1,367.69,377.25Zm-242.14-4.08h240.1v-248A39,39,0,0,0,326.7,86.19H117.9c5.08,7,7.65,22.52,7.65,46.21Z"/><path class="cls-5_report-analysis-1-70" d="M258,351.61H229.21a2,2,0,0,1-2-2V261.93a2,2,0,0,1,2-2H258a2,2,0,0,1,2,2v87.64A2,2,0,0,1,258,351.61Zm-26.71-4.08h24.68V264H231.25Z"/><path class="cls-5_report-analysis-1-70" d="M311.26,351.61H282.51a2,2,0,0,1-2-2v-39.5a2,2,0,0,1,2-2h28.75a2,2,0,0,1,2,2v39.5A2,2,0,0,1,311.26,351.61Zm-26.71-4.08h24.68V312.11H284.55Z"/><path class="cls-5_report-analysis-1-70" d="M168.43,213.22a2.08,2.08,0,0,1-.84-.18,2,2,0,0,1-1-2.7c.91-2,22.5-48.63,49-48.63H216c13,.24,21.55,11.79,29.79,23,10.56,14.33,19.68,26.7,36.65,16.82,31.67-18.44,47.37-63.45,47.53-63.9a2,2,0,1,1,3.85,1.32c-.65,1.91-16.33,46.88-49.33,66.1-20.12,11.72-31.74-4-42-17.92-7.65-10.37-15.56-21.1-26.59-21.3h-.34c-23.89,0-45.06,45.79-45.27,46.25A2,2,0,0,1,168.43,213.22Z"/><path class="cls-5_report-analysis-1-70" d="M339.19,228.6H155.58a2,2,0,0,1-2-2v-93.1a2,2,0,1,1,4.08,0v91.06H339.19a2,2,0,1,1,0,4.08Z"/><path class="cls-3_report-analysis-1-70" d="M94.88,335.67s-1-45,26.14-60,24.35,7.08,19.68,11.95-21.41,25.45-21.41,25.45,15.07,16.83,0,36.47"/><path class="cls-2_report-analysis-1-70" d="M119.29,351.61a2,2,0,0,1-1.61-3.28c13.88-18.09.67-33.23.1-33.87a2,2,0,0,1-.07-2.64c.69-.85,16.84-20.7,21.52-25.58,1.94-2,3.73-8.66,1.27-11.86s-9.17-2-18.5,3.11c-25.75,14.18-25.09,57.69-25.08,58.13a2,2,0,0,1-2,2.08h-.05a2,2,0,0,1-2-2,107.9,107.9,0,0,1,2.94-24.89c4.25-17.74,12.63-30.5,24.26-36.9,14.66-8.08,21-5.56,23.69-2,3.78,4.93,1.66,13.81-1.56,17.18-3.91,4.07-16.58,19.54-20.28,24.07,3.33,4.64,12.39,20.24-1,37.67A2.05,2.05,0,0,1,119.29,351.61Z"/><path class="cls-5_report-analysis-1-70" d="M339.19,351.61H160.49a2,2,0,0,1,0-4.08h178.7a2,2,0,0,1,0,4.08Z"/><path class="cls-5_report-analysis-1-70" d="M204.67,351.61H175.91a2,2,0,0,1-2-2V282.72a2,2,0,0,1,2-2h28.76a2,2,0,0,1,2,2v66.85A2,2,0,0,1,204.67,351.61ZM178,347.53h24.68V284.76H178Z"/><path class="cls-5_report-analysis-1-70" d="M194.15,251.07H155.58a2,2,0,0,1,0-4.08h38.57a2,2,0,0,1,0,4.08Z"/><path class="cls-5_report-analysis-1-70" d="M194.15,264H155.58a2,2,0,1,1,0-4.07h38.57a2,2,0,0,1,0,4.07Z"/><path class="cls-5_report-analysis-1-70" d="M283.44,119.72H216.87a2,2,0,1,1,0-4.08h66.57a2,2,0,1,1,0,4.08Z"/><path class="cls-5_report-analysis-1-70" d="M333.35,158.64a2,2,0,0,1-2-2v-17l-16.15,6.29a2,2,0,1,1-1.48-3.8l18.93-7.37a2,2,0,0,1,2.78,1.9v20A2,2,0,0,1,333.35,158.64Z"/></g><g id="magnifying-glass_report-analysis-1-70"><rect class="cls-1_report-analysis-1-70 targetColor" x="321.85" y="263.04" width="16.07" height="29.35" transform="translate(758.34 228.96) rotate(133.41)" style="fill: rgb(0, 187, 250);"/><path class="cls-2_report-analysis-1-70" d="M335,295.68a2,2,0,0,1-1.4-.56L312.3,275a2,2,0,0,1-.08-2.88l11-11.67a2.06,2.06,0,0,1,1.43-.64,2.22,2.22,0,0,1,1.46.56l21.31,20.17a2,2,0,0,1,.08,2.88L336.5,295a2.06,2.06,0,0,1-1.42.64Zm-18.43-22.29,18.35,17.37,8.24-8.71-18.36-17.37Z"/><rect class="cls-1_report-analysis-1-70 targetColor" x="300.87" y="247.26" width="24.66" height="29.35" transform="translate(718.72 214.44) rotate(133.41)" style="fill: rgb(0, 187, 250);"/><path class="cls-2_report-analysis-1-70" d="M315.39,283a2,2,0,0,1-1.41-.55l-21.31-20.17a2,2,0,0,1-.08-2.88l17-17.92a2.06,2.06,0,0,1,1.42-.64,2.33,2.33,0,0,1,1.46.56l21.32,20.17a2,2,0,0,1,.08,2.88l-16.95,17.92a2.05,2.05,0,0,1-1.43.63ZM297,260.73l18.36,17.37,14.14-15L311.1,245.77Z"/><rect class="cls-1_report-analysis-1-70 targetColor" x="349.64" y="274.46" width="24.66" height="67.23" rx="2.58" transform="translate(834.53 256.87) rotate(133.41)" style="fill: rgb(0, 187, 250);"/><path class="cls-2_report-analysis-1-70" d="M377.71,340a7.24,7.24,0,0,1-5-2l-41.21-39a7.31,7.31,0,0,1-.28-10.31l9.73-10.28a7.29,7.29,0,0,1,10.3-.28l41.21,39a7.29,7.29,0,0,1,.29,10.31L383,337.72h0a7.22,7.22,0,0,1-5.1,2.28Zm3.82-3.68h0Zm-35.29-56.09a3.23,3.23,0,0,0-2.34,1l-9.73,10.29a3.2,3.2,0,0,0,.13,4.54l41.2,39a3.4,3.4,0,0,0,2.3.88,3.2,3.2,0,0,0,2.25-1l9.73-10.28a3.16,3.16,0,0,0,.87-2.3,3.19,3.19,0,0,0-1-2.25l-41.21-39A3.18,3.18,0,0,0,346.24,280.23Z"/><path class="cls-1_report-analysis-1-70 targetColor" d="M313.76,182.65a58,58,0,1,0,2.26,82A58,58,0,0,0,313.76,182.65Zm-32.08,80.78A39.44,39.44,0,1,1,312.59,217,39.45,39.45,0,0,1,281.68,263.43Z" style="fill: rgb(0, 187, 250);"/><path class="cls-2_report-analysis-1-70" d="M273.9,266.2a41.43,41.43,0,1,1,8.17-.81h0A41.52,41.52,0,0,1,273.9,266.2Zm7.78-2.77h0ZM274,187.3a38,38,0,0,0-7.48.75,37.21,37.21,0,1,0,7.48-.75Z"/><path class="cls-2_report-analysis-1-70" d="M273.89,284.69A60,60,0,1,1,315.13,181.2h0a59.93,59.93,0,0,1-41.24,103.49Zm0-115.88a55.95,55.95,0,1,0,38.45,15.3h0A55.74,55.74,0,0,0,273.93,168.81Z"/><path class="cls-3_report-analysis-1-70" d="M356.15,373.51l-5-34.24s-27-23.62-29.56-35,2.56-16.17,7.81-13.75S345,301,345,301s-10.8-43.42-5.77-44.85,53.62,5.79,60,19.84,1.9,53.16,3.68,56.35,7.3,21.06,7.3,21.06Z"/><path class="cls-2_report-analysis-1-70" d="M356.15,375.54a2,2,0,0,1-1-.28,2.05,2.05,0,0,1-1-1.46l-4.88-33.5c-4-3.59-27.1-24.5-29.64-35.63-1.6-7-.59-12.57,2.76-15.29a7.28,7.28,0,0,1,7.89-.76c3.14,1.44,7.87,4.72,11.37,7.3-9.48-39.88-4.64-41.26-3-41.73,5.08-1.44,55.22,5.13,62.43,21,4.39,9.64,3.91,29.31,3.56,43.67-.13,5.4-.28,11.51.1,12.64,1.78,3.17,6.85,19.49,7.42,21.34a2,2,0,0,1-1.24,2.51l-54,20.1A2,2,0,0,1,356.15,375.54Zm-29.37-83.65a2.84,2.84,0,0,0-1.84.65c-1.6,1.3-2.8,4.93-1.36,11.22,2,8.85,21.56,27.53,28.92,34a2,2,0,0,1,.68,1.24l4.62,31.73,49.87-18.54c-2.21-7.08-5.43-16.82-6.56-18.84-.82-1.46-.81-4.76-.56-14.61.32-13.18.81-33.1-3.2-41.89-2.39-5.25-13-10.56-29.15-14.59-13.45-3.35-25.35-4.48-28.06-4.2-1.41,3.72,2.36,24.61,6.8,42.47a2,2,0,0,1-3.24,2.09c-.1-.08-10.16-8-15.14-10.28A4.36,4.36,0,0,0,326.78,291.89Z"/><polygon class="cls-1_report-analysis-1-70 targetColor" points="421.83 415.96 410.19 353.4 353.32 354.11 352.14 415.96 421.83 415.96" style="fill: rgb(0, 187, 250);"/><path class="cls-2_report-analysis-1-70" d="M421.83,418H352.14a2,2,0,0,1-2-2.08l1.17-61.85a2,2,0,0,1,2-2l56.87-.7h0a2,2,0,0,1,2,1.66l11.63,62.56a2.06,2.06,0,0,1-.43,1.67A2,2,0,0,1,421.83,418Zm-67.61-4.08h65.16L408.5,355.46l-53.18.66Z"/></g></svg>