<svg id="_0009_pie_chart" xmlns="http://www.w3.org/2000/svg" xmlns:xlink="http://www.w3.org/1999/xlink" viewBox="0 0 500 500" data-imageid="chart-5-45" imageName="Chart 5" class="illustrations_image" style="width: 188px;"><defs><style>.cls-1_chart-5-45{fill:none;}.cls-1_chart-5-45,.cls-2_chart-5-45,.cls-3_chart-5-45,.cls-4_chart-5-45,.cls-5_chart-5-45,.cls-6_chart-5-45,.cls-7_chart-5-45,.cls-8_chart-5-45,.cls-9_chart-5-45,.cls-10_chart-5-45,.cls-11_chart-5-45{stroke-width:0px;}.cls-2_chart-5-45{fill:url(#linear-gradient);}.cls-3_chart-5-45,.cls-4_chart-5-45{isolation:isolate;opacity:.18;}.cls-3_chart-5-45,.cls-11_chart-5-45{fill:#68e1fd;}.cls-4_chart-5-45{fill:#fff;}.cls-5_chart-5-45{fill:url(#linear-gradient-4-chart-5-45);}.cls-6_chart-5-45{fill:url(#linear-gradient-2-chart-5-45);}.cls-7_chart-5-45{fill:url(#linear-gradient-3-chart-5-45);}.cls-8_chart-5-45{fill:url(#linear-gradient-5-chart-5-45);}.cls-9_chart-5-45{fill:#ffb4a3;}.cls-10_chart-5-45{fill:#ea9f92;}</style><linearGradient id="linear-gradient-chart-5-45" x1="-127" y1="1778.44" x2="-220.72" y2="1422.32" gradientTransform="translate(409 1880.3) scale(1 -1)" gradientUnits="userSpaceOnUse"><stop offset="0" stop-color="#000"/><stop offset=".99" stop-color="#000" stop-opacity="0"/></linearGradient><linearGradient id="linear-gradient-2-chart-5-45" x1="-292.93" y1="1582.91" x2="62.35" y2="1718.84" xlink:href="#linear-gradient-chart-5-45"/><linearGradient id="linear-gradient-3-chart-5-45" x1="-47.45" y1="1717.98" x2="-120.56" y2="1497.61" xlink:href="#linear-gradient-chart-5-45"/><linearGradient id="linear-gradient-4-chart-5-45" x1="-153.98" y1="1821.44" x2="-333.26" y2="1528.07" xlink:href="#linear-gradient-chart-5-45"/><linearGradient id="linear-gradient-5-chart-5-45" x1="-180.49" y1="1617.19" x2="-164.44" y2="1778.38" xlink:href="#linear-gradient-chart-5-45"/></defs><g id="background_chart-5-45"><path class="cls-3_chart-5-45 targetColor" d="M66.32,149.35c-22.67,10.29-48.58,20.02-59.48,42.39-9.26,18.98-4.63,42.06,4.79,60.96,9.06,18.14,22.13,33.98,38.23,46.3,13.39,10.23,29.62,18.98,35.75,34.69,5.76,14.76.78,31.45,2.89,47.15,4.42,32.96,39.95,54.33,73.2,55.06,33.25.73,64.68-13.7,95.19-26.98,30.51-13.28,63.23-25.84,96.15-21.15,28.32,4.04,56.06,20.7,83.76,13.7,20.84-5.27,36.26-23.05,46.55-41.93,18.21-33.45,22.63-79.18-3.74-106.64-9.53-9.92-22.67-17.15-27.98-29.83-4.58-10.92-2.23-23.31-2.24-35.15,0-30.56-17-59.74-41.3-78.29-24.3-18.55-55.15-27.2-85.69-28.34-20.32-.77-40.92,1.59-60.85-2.56-36.6-7.62-66.8-29.27-97.54.87-29.49,28.93-59.42,52.36-97.68,69.73Z" style="fill: rgb(0, 187, 250);"/></g><g id="pie_chart_chart-5-45"><path class="cls-11_chart-5-45 targetColor" d="M300.16,366.48c-93.57,8.18-194.85-35.06-226.22-96.59-8.32-16.3-10.88-32.25-8.43-47.04,1.48,8.77,4.32,17.26,8.43,25.15,31.37,61.53,132.67,104.76,226.21,96.59,68.78-6.02,114.23-38.14,121.04-79.17-3.13,54.37-40.43,94.01-121.03,101.06Z" style="fill: rgb(0, 187, 250);"/><path class="cls-2_chart-5-45" d="M300.16,366.48c-93.57,8.18-194.85-35.06-226.22-96.59-8.32-16.3-10.88-32.25-8.43-47.04,1.48,8.77,4.32,17.26,8.43,25.15,31.37,61.53,132.67,104.76,226.21,96.59,68.78-6.02,114.23-38.14,121.04-79.17-3.13,54.37-40.43,94.01-121.03,101.06Z"/><path class="cls-11_chart-5-45 targetColor" d="M422.05,256.23h0c-.07,3.08-.36,6.15-.86,9.19-2.87,17.28-12.59,33.01-28.03,45.83-21.18,17.63-53.2,29.86-93,33.34-71.16,6.23-146.78-17.3-192.72-55.99-14.47-12.18-25.99-25.83-33.5-40.59-4.11-7.89-6.96-16.38-8.43-25.15-6.78-42.45,25.61-79.25,82.98-94.54l101.53,84.86,70.94-70.08c41.86,17.48,75.86,44.02,91.8,75.28,6.62,12.97,9.6,25.7,9.29,37.84Z" style="fill: rgb(0, 187, 250);"/><path class="cls-11_chart-5-45 targetColor" d="M422.05,256.23h0l-172.05-43.04,70.96-70.08c41.86,17.48,75.86,44.02,91.8,75.28,6.62,12.97,9.6,25.7,9.29,37.84Z" style="fill: rgb(0, 187, 250);"/><path class="cls-6_chart-5-45" d="M422.05,256.23h0l-172.05-43.04,70.96-70.08c41.86,17.48,75.86,44.02,91.8,75.28,6.62,12.97,9.6,25.7,9.29,37.84Z"/><path class="cls-11_chart-5-45 targetColor" d="M422.05,256.23h0c-.07,3.08-.36,6.15-.86,9.19-2.87,17.28-12.59,33.01-28.03,45.83l-143.16-98.06,172.05,43.04Z" style="fill: rgb(0, 187, 250);"/><path class="cls-7_chart-5-45" d="M422.05,256.23h0c-.07,3.08-.36,6.15-.86,9.19-2.87,17.28-12.59,33.01-28.03,45.83l-143.16-98.06,172.05,43.04Z"/><path class="cls-5_chart-5-45" d="M250,213.19l-142.57,75.42c-14.46-12.18-25.99-25.84-33.5-40.6-4.11-7.89-6.96-16.38-8.43-25.15l184.49-9.67Z"/><path class="cls-4_chart-5-45" d="M86.79,161.3s-5.26,36.94,16.82,43.48c22.07,6.53,146.37,8.41,146.37,8.41l-184.49,9.67s-10.12-29.69,21.3-61.56Z"/><path class="cls-4_chart-5-45" d="M107.43,288.61s235.11,57.3,293.3-37.71l21.32,5.34s.81,62.81-83.28,81.69c-84.09,18.88-176.31,1.03-231.34-49.31Z"/></g><g id="hand_chart-5-45"><path class="cls-9_chart-5-45" d="M487.53,349.42c-2.89,6.9-6.27,13.58-10.12,20,0,0-4.61-8.77-14.66-26.47-4.26-7.52-8.9-11.35-13.55-13.38h0c-6.28-2.74-12.59-2.2-18.06-3.07-9.54-1.5-19.08-6.97-19.08-6.97,0,0-22.11-14.12-30.14-19.6-8.03-5.47-12.67-19.65-2.04-20.65,10.63-1,37.84,7.62,37.84,7.62h0c14.54-44.55-16.28-86.96-17.05-88.03l.06.04.22.19.17.14.42.37c2.95,2.54,12.72,10.94,21.38,18.48l.29.26c4.95,4.3,9.49,8.3,12.16,10.73,8.28,7.53,60.52,68.19,60.52,68.19,3.82,17.42-2.2,37.58-8.36,52.15Z"/><path class="cls-10_chart-5-45" d="M417.74,287.69c14.54-44.54-16.28-86.96-17.05-88.03l.06.05.22.19.17.14.42.37,21.38,18.49.29.26s9.76,11.04,5.99,44.98c-1.11,10.07-11.12,22.85-11.48,23.56Z"/><path class="cls-10_chart-5-45" d="M487.53,350.26c-2.89,6.9-6.27,13.58-10.12,19.99,0,0-4.61-8.77-14.66-26.47-4.26-7.52-8.9-11.35-13.55-13.38,1.08.28,26.28,6.85,34.14,14.87,1.51,1.56,2.91,3.23,4.18,4.99Z"/><path class="cls-10_chart-5-45" d="M383.79,286.76c2.36-.38,4.76.22,7.01,1.02,1.9.68,3.75,1.52,5.52,2.49.72.39,1.49.89,1.66,1.69.06.59-.06,1.18-.35,1.7-1.18,2.67-2.69,5.18-4.49,7.47-.14.22-.34.4-.58.5-.21.05-.44.05-.65,0-4.7-.66-9.06-2.84-12.41-6.19-3.61-3.74-.39-7.93,4.29-8.68Z"/></g><g id="slice_of_pie_chart-5-45"><path class="cls-11_chart-5-45 targetColor" d="M329.58,128.76l-70.96,70.08-101.53-84.86v-14.23c9.55-2.15,27.31,8.64,38.05,7.7,44.22-3.87,94.94-8.55,134.42,7.08l.02,14.23Z" style="fill: rgb(0, 187, 250);"/><path class="cls-8_chart-5-45" d="M329.58,128.76l-70.96,70.08-101.53-84.86v-14.23c9.55-2.15,27.31,8.64,38.05,7.7,44.22-3.87,94.94-8.55,134.42,7.08l.02,14.23Z"/><line class="cls-1_chart-5-45" x1="258.62" y1="198.85" x2="157.11" y2="113.98"/><path class="cls-11_chart-5-45 targetColor" d="M329.58,114.53l-65.35,64.55-5.61,5.54-101.53-84.87c12.48-3.26,25.21-5.44,38.06-6.52,3.82-.33,7.64-.58,11.49-.74,42.44-1.82,85.78,6.54,122.93,22.04Z" style="fill: rgb(0, 187, 250);"/><path class="cls-4_chart-5-45" d="M264.23,179.08l-5.61,5.54-101.53-84.87c12.48-3.26,25.21-5.44,38.06-6.52,3.82-.33,7.64-.58,11.49-.74,5.76-.25-27.23,5.61-11.83,20.76,15.39,15.15,69.42,65.83,69.42,65.83Z"/></g></svg>